# xmcd CD database file
#
# Track frame offsets:
#	150
#	25180
#	48402
#	69464
#	90687
#	116807
#	143714
#	164052
#	196427
#	214856
#
# Disc length: 3050 seconds
#
# Revision: 0
# Processed by: cddbd v1.5.2PL0 Copyright (c) Steve Scherf et al.
# Submitted via: CDex 1.51
#
DISCID=940be80a
DTITLE=Defranceschi Jazz Quartet - Riflessi Indaco
DYEAR=2006
DGENRE=Jazz
TTITLE0=Frammenti
TTITLE1=Sator
TTITLE2=Esedra
TTITLE3=In Imbarazzo
TTITLE4=Alessia's Blues
TTITLE5=Lara's waltz
TTITLE6=Rotas
TTITLE7=Street function
TTITLE8=Riflessi indaco
TTITLE9=Ebani
EXTD=YEAR: 2006
EXTT0=
EXTT1=
EXTT2=
EXTT3=
EXTT4=
EXTT5=
EXTT6=
EXTT7=
EXTT8=
EXTT9=
PLAYORDER=
